<?xml version="1.0" encoding="UTF-8" standalone="no"?>
<!DOCTYPE svg PUBLIC "-//W3C//DTD SVG 1.1//EN"
 "http://www.w3.org/Graphics/SVG/1.1/DTD/svg11.dtd">
<!-- Generated by graphviz version 2.43.0 (0)
 -->
<!-- Title: controllers_diagram Pages: 1 -->
<svg width="837pt" height="770pt"
 viewBox="0.00 0.00 837.00 770.00" xmlns="http://www.w3.org/2000/svg" xmlns:xlink="http://www.w3.org/1999/xlink">
<g id="graph0" class="graph" transform="scale(1 1) rotate(0) translate(4 766)">
<title>controllers_diagram</title>
<polygon fill="transparent" stroke="transparent" points="-4,4 -4,-766 833,-766 833,4 -4,4"/>
<!-- _diagram_info -->
<g id="node1" class="node">
<title>_diagram_info</title>
<text text-anchor="start" x="216" y="-559.6" font-family="Times,serif" font-size="13.00">Controllers diagram</text>
<text text-anchor="start" x="216" y="-545.6" font-family="Times,serif" font-size="13.00">Date: Feb 16 2024 &#45; 17:19</text>
<text text-anchor="start" x="216" y="-531.6" font-family="Times,serif" font-size="13.00">Migration version: 20210916091955</text>
<text text-anchor="start" x="216" y="-517.6" font-family="Times,serif" font-size="13.00">Generated by RailRoady 1.6.0</text>
<text text-anchor="start" x="216" y="-503.6" font-family="Times,serif" font-size="13.00">http://railroady.prestonlee.com</text>
</g>
<!-- ApplicationController -->
<g id="node2" class="node">
<title>ApplicationController</title>
<path fill="none" stroke="black" d="M460,-128.5C460,-128.5 630,-128.5 630,-128.5 636,-128.5 642,-134.5 642,-140.5 642,-140.5 642,-209.5 642,-209.5 642,-215.5 636,-221.5 630,-221.5 630,-221.5 460,-221.5 460,-221.5 454,-221.5 448,-215.5 448,-209.5 448,-209.5 448,-140.5 448,-140.5 448,-134.5 454,-128.5 460,-128.5"/>
<text text-anchor="middle" x="545" y="-206.3" font-family="Times,serif" font-size="14.00">ApplicationController</text>
<polyline fill="none" stroke="black" points="448,-198.5 642,-198.5 "/>
<polyline fill="none" stroke="black" points="448,-174.5 642,-174.5 "/>
<text text-anchor="start" x="456" y="-159.3" font-family="Times,serif" font-size="14.00">configure_permitted_parameters</text>
<polyline fill="none" stroke="black" points="448,-151.5 642,-151.5 "/>
<text text-anchor="start" x="456" y="-136.3" font-family="Times,serif" font-size="14.00">_layout</text>
</g>
<!-- ConversationsController -->
<g id="node3" class="node">
<title>ConversationsController</title>
<path fill="none" stroke="black" d="M460,-400.5C460,-400.5 585,-400.5 585,-400.5 591,-400.5 597,-406.5 597,-412.5 597,-412.5 597,-541.5 597,-541.5 597,-547.5 591,-553.5 585,-553.5 585,-553.5 460,-553.5 460,-553.5 454,-553.5 448,-547.5 448,-541.5 448,-541.5 448,-412.5 448,-412.5 448,-406.5 454,-400.5 460,-400.5"/>
<text text-anchor="middle" x="522.5" y="-538.3" font-family="Times,serif" font-size="14.00">ConversationsController</text>
<polyline fill="none" stroke="black" points="448,-530.5 597,-530.5 "/>
<text text-anchor="start" x="456" y="-515.3" font-family="Times,serif" font-size="14.00">create</text>
<text text-anchor="start" x="456" y="-500.3" font-family="Times,serif" font-size="14.00">destroy</text>
<text text-anchor="start" x="456" y="-485.3" font-family="Times,serif" font-size="14.00">index</text>
<text text-anchor="start" x="456" y="-470.3" font-family="Times,serif" font-size="14.00">new</text>
<text text-anchor="start" x="456" y="-455.3" font-family="Times,serif" font-size="14.00">show</text>
<polyline fill="none" stroke="black" points="448,-447.5 597,-447.5 "/>
<polyline fill="none" stroke="black" points="448,-423.5 597,-423.5 "/>
<text text-anchor="start" x="456" y="-408.3" font-family="Times,serif" font-size="14.00">_layout</text>
</g>
<!-- ExamsController -->
<g id="node4" class="node">
<title>ExamsController</title>
<path fill="none" stroke="black" d="M156,-272.5C156,-272.5 242,-272.5 242,-272.5 248,-272.5 254,-278.5 254,-284.5 254,-284.5 254,-443.5 254,-443.5 254,-449.5 248,-455.5 242,-455.5 242,-455.5 156,-455.5 156,-455.5 150,-455.5 144,-449.5 144,-443.5 144,-443.5 144,-284.5 144,-284.5 144,-278.5 150,-272.5 156,-272.5"/>
<text text-anchor="middle" x="199" y="-440.3" font-family="Times,serif" font-size="14.00">ExamsController</text>
<polyline fill="none" stroke="black" points="144,-432.5 254,-432.5 "/>
<text text-anchor="start" x="152" y="-417.3" font-family="Times,serif" font-size="14.00">create</text>
<text text-anchor="start" x="152" y="-402.3" font-family="Times,serif" font-size="14.00">destroy</text>
<text text-anchor="start" x="152" y="-387.3" font-family="Times,serif" font-size="14.00">edit</text>
<text text-anchor="start" x="152" y="-372.3" font-family="Times,serif" font-size="14.00">index</text>
<text text-anchor="start" x="152" y="-357.3" font-family="Times,serif" font-size="14.00">new</text>
<text text-anchor="start" x="152" y="-342.3" font-family="Times,serif" font-size="14.00">show</text>
<text text-anchor="start" x="152" y="-327.3" font-family="Times,serif" font-size="14.00">update</text>
<polyline fill="none" stroke="black" points="144,-319.5 254,-319.5 "/>
<polyline fill="none" stroke="black" points="144,-295.5 254,-295.5 "/>
<text text-anchor="start" x="152" y="-280.3" font-family="Times,serif" font-size="14.00">_layout</text>
</g>
<!-- MessagesController -->
<g id="node5" class="node">
<title>MessagesController</title>
<path fill="none" stroke="black" d="M716,-160.5C716,-160.5 817,-160.5 817,-160.5 823,-160.5 829,-166.5 829,-172.5 829,-172.5 829,-256.5 829,-256.5 829,-262.5 823,-268.5 817,-268.5 817,-268.5 716,-268.5 716,-268.5 710,-268.5 704,-262.5 704,-256.5 704,-256.5 704,-172.5 704,-172.5 704,-166.5 710,-160.5 716,-160.5"/>
<text text-anchor="middle" x="766.5" y="-253.3" font-family="Times,serif" font-size="14.00">MessagesController</text>
<polyline fill="none" stroke="black" points="704,-245.5 829,-245.5 "/>
<text text-anchor="start" x="712" y="-230.3" font-family="Times,serif" font-size="14.00">create</text>
<polyline fill="none" stroke="black" points="704,-222.5 829,-222.5 "/>
<polyline fill="none" stroke="black" points="704,-198.5 829,-198.5 "/>
<text text-anchor="start" x="712" y="-183.3" font-family="Times,serif" font-size="14.00">_layout</text>
<text text-anchor="start" x="712" y="-168.3" font-family="Times,serif" font-size="14.00">set_conversation</text>
</g>
<!-- PagesController -->
<g id="node6" class="node">
<title>PagesController</title>
<path fill="none" stroke="black" d="M12,-480.5C12,-480.5 92,-480.5 92,-480.5 98,-480.5 104,-486.5 104,-492.5 104,-492.5 104,-561.5 104,-561.5 104,-567.5 98,-573.5 92,-573.5 92,-573.5 12,-573.5 12,-573.5 6,-573.5 0,-567.5 0,-561.5 0,-561.5 0,-492.5 0,-492.5 0,-486.5 6,-480.5 12,-480.5"/>
<text text-anchor="middle" x="52" y="-558.3" font-family="Times,serif" font-size="14.00">PagesController</text>
<polyline fill="none" stroke="black" points="0,-550.5 104,-550.5 "/>
<text text-anchor="start" x="8" y="-535.3" font-family="Times,serif" font-size="14.00">home</text>
<polyline fill="none" stroke="black" points="0,-527.5 104,-527.5 "/>
<polyline fill="none" stroke="black" points="0,-503.5 104,-503.5 "/>
<text text-anchor="start" x="8" y="-488.3" font-family="Times,serif" font-size="14.00">_layout</text>
</g>
<!-- ProjectsController -->
<g id="node7" class="node">
<title>ProjectsController</title>
<path fill="none" stroke="black" d="M300,-240.5C300,-240.5 401,-240.5 401,-240.5 407,-240.5 413,-246.5 413,-252.5 413,-252.5 413,-426.5 413,-426.5 413,-432.5 407,-438.5 401,-438.5 401,-438.5 300,-438.5 300,-438.5 294,-438.5 288,-432.5 288,-426.5 288,-426.5 288,-252.5 288,-252.5 288,-246.5 294,-240.5 300,-240.5"/>
<text text-anchor="middle" x="350.5" y="-423.3" font-family="Times,serif" font-size="14.00">ProjectsController</text>
<polyline fill="none" stroke="black" points="288,-415.5 413,-415.5 "/>
<text text-anchor="start" x="296" y="-400.3" font-family="Times,serif" font-size="14.00">create</text>
<text text-anchor="start" x="296" y="-385.3" font-family="Times,serif" font-size="14.00">destroy</text>
<text text-anchor="start" x="296" y="-370.3" font-family="Times,serif" font-size="14.00">edit</text>
<text text-anchor="start" x="296" y="-355.3" font-family="Times,serif" font-size="14.00">new</text>
<text text-anchor="start" x="296" y="-340.3" font-family="Times,serif" font-size="14.00">show</text>
<text text-anchor="start" x="296" y="-325.3" font-family="Times,serif" font-size="14.00">update</text>
<polyline fill="none" stroke="black" points="288,-317.5 413,-317.5 "/>
<polyline fill="none" stroke="black" points="288,-293.5 413,-293.5 "/>
<text text-anchor="start" x="296" y="-278.3" font-family="Times,serif" font-size="14.00">_layout</text>
<text text-anchor="start" x="296" y="-263.3" font-family="Times,serif" font-size="14.00">can_create_project?</text>
<text text-anchor="start" x="296" y="-248.3" font-family="Times,serif" font-size="14.00">unset</text>
</g>
<!-- UserExamsController -->
<g id="node8" class="node">
<title>UserExamsController</title>
<path fill="none" stroke="black" d="M444,-608.5C444,-608.5 555,-608.5 555,-608.5 561,-608.5 567,-614.5 567,-620.5 567,-620.5 567,-719.5 567,-719.5 567,-725.5 561,-731.5 555,-731.5 555,-731.5 444,-731.5 444,-731.5 438,-731.5 432,-725.5 432,-719.5 432,-719.5 432,-620.5 432,-620.5 432,-614.5 438,-608.5 444,-608.5"/>
<text text-anchor="middle" x="499.5" y="-716.3" font-family="Times,serif" font-size="14.00">UserExamsController</text>
<polyline fill="none" stroke="black" points="432,-708.5 567,-708.5 "/>
<text text-anchor="start" x="440" y="-693.3" font-family="Times,serif" font-size="14.00">create</text>
<text text-anchor="start" x="440" y="-678.3" font-family="Times,serif" font-size="14.00">destroy</text>
<polyline fill="none" stroke="black" points="432,-670.5 567,-670.5 "/>
<polyline fill="none" stroke="black" points="432,-646.5 567,-646.5 "/>
<text text-anchor="start" x="440" y="-631.3" font-family="Times,serif" font-size="14.00">_layout</text>
<text text-anchor="start" x="440" y="-616.3" font-family="Times,serif" font-size="14.00">can_destroy_exam?</text>
</g>
<!-- UserProjectsController -->
<g id="node9" class="node">
<title>UserProjectsController</title>
<path fill="none" stroke="black" d="M268,-608.5C268,-608.5 385,-608.5 385,-608.5 391,-608.5 397,-614.5 397,-620.5 397,-620.5 397,-719.5 397,-719.5 397,-725.5 391,-731.5 385,-731.5 385,-731.5 268,-731.5 268,-731.5 262,-731.5 256,-725.5 256,-719.5 256,-719.5 256,-620.5 256,-620.5 256,-614.5 262,-608.5 268,-608.5"/>
<text text-anchor="middle" x="326.5" y="-716.3" font-family="Times,serif" font-size="14.00">UserProjectsController</text>
<polyline fill="none" stroke="black" points="256,-708.5 397,-708.5 "/>
<text text-anchor="start" x="264" y="-693.3" font-family="Times,serif" font-size="14.00">create</text>
<text text-anchor="start" x="264" y="-678.3" font-family="Times,serif" font-size="14.00">destroy</text>
<polyline fill="none" stroke="black" points="256,-670.5 397,-670.5 "/>
<polyline fill="none" stroke="black" points="256,-646.5 397,-646.5 "/>
<text text-anchor="start" x="264" y="-631.3" font-family="Times,serif" font-size="14.00">_layout</text>
<text text-anchor="start" x="264" y="-616.3" font-family="Times,serif" font-size="14.00">can_add?</text>
</g>
<!-- Users::ConfirmationsController -->
<g id="node10" class="node">
<title>Users::ConfirmationsController</title>
<path fill="none" stroke="black" d="M604,-592.5C604,-592.5 769,-592.5 769,-592.5 775,-592.5 781,-598.5 781,-604.5 781,-604.5 781,-674.5 781,-674.5 781,-680.5 775,-686.5 769,-686.5 769,-686.5 604,-686.5 604,-686.5 598,-686.5 592,-680.5 592,-674.5 592,-674.5 592,-604.5 592,-604.5 592,-598.5 598,-592.5 604,-592.5"/>
<text text-anchor="middle" x="686.5" y="-671.3" font-family="Times,serif" font-size="14.00">Users::ConfirmationsController</text>
<polyline fill="none" stroke="black" points="592,-663.5 781,-663.5 "/>
<polyline fill="none" stroke="black" points="592,-639.5 781,-639.5 "/>
<polyline fill="none" stroke="black" points="592,-615.5 781,-615.5 "/>
<text text-anchor="start" x="600" y="-600.3" font-family="Times,serif" font-size="14.00">_layout</text>
</g>
<!-- Users::OmniauthCallbacksController -->
<g id="node11" class="node">
<title>Users::OmniauthCallbacksController</title>
<path fill="none" stroke="black" d="M460,-256.5C460,-256.5 654,-256.5 654,-256.5 660,-256.5 666,-262.5 666,-268.5 666,-268.5 666,-352.5 666,-352.5 666,-358.5 660,-364.5 654,-364.5 654,-364.5 460,-364.5 460,-364.5 454,-364.5 448,-358.5 448,-352.5 448,-352.5 448,-268.5 448,-268.5 448,-262.5 454,-256.5 460,-256.5"/>
<text text-anchor="middle" x="557" y="-349.3" font-family="Times,serif" font-size="14.00">Users::OmniauthCallbacksController</text>
<polyline fill="none" stroke="black" points="448,-341.5 666,-341.5 "/>
<text text-anchor="start" x="456" y="-326.3" font-family="Times,serif" font-size="14.00">assign_role</text>
<text text-anchor="start" x="456" y="-311.3" font-family="Times,serif" font-size="14.00">google_oauth2</text>
<polyline fill="none" stroke="black" points="448,-303.5 666,-303.5 "/>
<polyline fill="none" stroke="black" points="448,-279.5 666,-279.5 "/>
<text text-anchor="start" x="456" y="-264.3" font-family="Times,serif" font-size="14.00">_layout</text>
</g>
<!-- Users::PasswordsController -->
<g id="node12" class="node">
<title>Users::PasswordsController</title>
<path fill="none" stroke="black" d="M636,-400.5C636,-400.5 779,-400.5 779,-400.5 785,-400.5 791,-406.5 791,-412.5 791,-412.5 791,-482.5 791,-482.5 791,-488.5 785,-494.5 779,-494.5 779,-494.5 636,-494.5 636,-494.5 630,-494.5 624,-488.5 624,-482.5 624,-482.5 624,-412.5 624,-412.5 624,-406.5 630,-400.5 636,-400.5"/>
<text text-anchor="middle" x="707.5" y="-479.3" font-family="Times,serif" font-size="14.00">Users::PasswordsController</text>
<polyline fill="none" stroke="black" points="624,-471.5 791,-471.5 "/>
<polyline fill="none" stroke="black" points="624,-447.5 791,-447.5 "/>
<polyline fill="none" stroke="black" points="624,-423.5 791,-423.5 "/>
<text text-anchor="start" x="632" y="-408.3" font-family="Times,serif" font-size="14.00">_layout</text>
</g>
<!-- Users::RegistrationsController -->
<g id="node13" class="node">
<title>Users::RegistrationsController</title>
<path fill="none" stroke="black" d="M124,-112.5C124,-112.5 282,-112.5 282,-112.5 288,-112.5 294,-118.5 294,-124.5 294,-124.5 294,-193.5 294,-193.5 294,-199.5 288,-205.5 282,-205.5 282,-205.5 124,-205.5 124,-205.5 118,-205.5 112,-199.5 112,-193.5 112,-193.5 112,-124.5 112,-124.5 112,-118.5 118,-112.5 124,-112.5"/>
<text text-anchor="middle" x="203" y="-190.3" font-family="Times,serif" font-size="14.00">Users::RegistrationsController</text>
<polyline fill="none" stroke="black" points="112,-182.5 294,-182.5 "/>
<text text-anchor="start" x="120" y="-167.3" font-family="Times,serif" font-size="14.00">assign_role</text>
<polyline fill="none" stroke="black" points="112,-159.5 294,-159.5 "/>
<polyline fill="none" stroke="black" points="112,-135.5 294,-135.5 "/>
<text text-anchor="start" x="120" y="-120.3" font-family="Times,serif" font-size="14.00">_layout</text>
</g>
<!-- Users::SessionsController -->
<g id="node14" class="node">
<title>Users::SessionsController</title>
<path fill="none" stroke="black" d="M684,-32.5C684,-32.5 817,-32.5 817,-32.5 823,-32.5 829,-38.5 829,-44.5 829,-44.5 829,-114.5 829,-114.5 829,-120.5 823,-126.5 817,-126.5 817,-126.5 684,-126.5 684,-126.5 678,-126.5 672,-120.5 672,-114.5 672,-114.5 672,-44.5 672,-44.5 672,-38.5 678,-32.5 684,-32.5"/>
<text text-anchor="middle" x="750.5" y="-111.3" font-family="Times,serif" font-size="14.00">Users::SessionsController</text>
<polyline fill="none" stroke="black" points="672,-103.5 829,-103.5 "/>
<polyline fill="none" stroke="black" points="672,-79.5 829,-79.5 "/>
<polyline fill="none" stroke="black" points="672,-55.5 829,-55.5 "/>
<text text-anchor="start" x="680" y="-40.3" font-family="Times,serif" font-size="14.00">_layout</text>
</g>
<!-- Users::UnlocksController -->
<g id="node15" class="node">
<title>Users::UnlocksController</title>
<path fill="none" stroke="black" d="M364,-0.5C364,-0.5 495,-0.5 495,-0.5 501,-0.5 507,-6.5 507,-12.5 507,-12.5 507,-82.5 507,-82.5 507,-88.5 501,-94.5 495,-94.5 495,-94.5 364,-94.5 364,-94.5 358,-94.5 352,-88.5 352,-82.5 352,-82.5 352,-12.5 352,-12.5 352,-6.5 358,-0.5 364,-0.5"/>
<text text-anchor="middle" x="429.5" y="-79.3" font-family="Times,serif" font-size="14.00">Users::UnlocksController</text>
<polyline fill="none" stroke="black" points="352,-71.5 507,-71.5 "/>
<polyline fill="none" stroke="black" points="352,-47.5 507,-47.5 "/>
<polyline fill="none" stroke="black" points="352,-23.5 507,-23.5 "/>
<text text-anchor="start" x="360" y="-8.3" font-family="Times,serif" font-size="14.00">_layout</text>
</g>
<!-- UsersController -->
<g id="node16" class="node">
<title>UsersController</title>
<path fill="none" stroke="black" d="M124,-608.5C124,-608.5 209,-608.5 209,-608.5 215,-608.5 221,-614.5 221,-620.5 221,-620.5 221,-749.5 221,-749.5 221,-755.5 215,-761.5 209,-761.5 209,-761.5 124,-761.5 124,-761.5 118,-761.5 112,-755.5 112,-749.5 112,-749.5 112,-620.5 112,-620.5 112,-614.5 118,-608.5 124,-608.5"/>
<text text-anchor="middle" x="166.5" y="-746.3" font-family="Times,serif" font-size="14.00">UsersController</text>
<polyline fill="none" stroke="black" points="112,-738.5 221,-738.5 "/>
<text text-anchor="start" x="120" y="-723.3" font-family="Times,serif" font-size="14.00">destroy</text>
<text text-anchor="start" x="120" y="-708.3" font-family="Times,serif" font-size="14.00">index</text>
<text text-anchor="start" x="120" y="-693.3" font-family="Times,serif" font-size="14.00">index_professors</text>
<text text-anchor="start" x="120" y="-678.3" font-family="Times,serif" font-size="14.00">show</text>
<text text-anchor="start" x="120" y="-663.3" font-family="Times,serif" font-size="14.00">upgrade_student</text>
<polyline fill="none" stroke="black" points="112,-655.5 221,-655.5 "/>
<polyline fill="none" stroke="black" points="112,-631.5 221,-631.5 "/>
<text text-anchor="start" x="120" y="-616.3" font-family="Times,serif" font-size="14.00">_layout</text>
</g>
</g>
</svg>
