<?xml version="1.0" encoding="UTF-8" standalone="no"?>
<!DOCTYPE svg PUBLIC "-//W3C//DTD SVG 1.1//EN"
 "http://www.w3.org/Graphics/SVG/1.1/DTD/svg11.dtd">
<!-- Generated by graphviz version 2.43.0 (0)
 -->
<!-- Title: models_diagram Pages: 1 -->
<svg width="788pt" height="392pt"
 viewBox="0.00 0.00 788.00 392.00" xmlns="http://www.w3.org/2000/svg" xmlns:xlink="http://www.w3.org/1999/xlink">
<g id="graph0" class="graph" transform="scale(1 1) rotate(0) translate(4 388)">
<title>models_diagram</title>
<polygon fill="transparent" stroke="transparent" points="-4,4 -4,-388 784,-388 784,4 -4,4"/>
<!-- _diagram_info -->
<g id="node1" class="node">
<title>_diagram_info</title>
<text text-anchor="start" x="8" y="-369.6" font-family="Times,serif" font-size="13.00">Models diagram</text>
<text text-anchor="start" x="8" y="-355.6" font-family="Times,serif" font-size="13.00">Date: Feb 16 2024 &#45; 17:19</text>
<text text-anchor="start" x="8" y="-341.6" font-family="Times,serif" font-size="13.00">Migration version: 20210916091955</text>
<text text-anchor="start" x="8" y="-327.6" font-family="Times,serif" font-size="13.00">Generated by RailRoady 1.6.0</text>
<text text-anchor="start" x="8" y="-313.6" font-family="Times,serif" font-size="13.00">http://railroady.prestonlee.com</text>
</g>
<!-- ApplicationRecord -->
<g id="node2" class="node">
<title>ApplicationRecord</title>
<ellipse fill="none" stroke="black" cx="307" cy="-345" rx="77.19" ry="18"/>
<text text-anchor="middle" x="307" y="-341.3" font-family="Times,serif" font-size="14.00">ApplicationRecord</text>
</g>
<!-- Exam -->
<g id="node3" class="node">
<title>Exam</title>
<ellipse fill="none" stroke="black" cx="434" cy="-345" rx="31.7" ry="18"/>
<text text-anchor="middle" x="434" y="-341.3" font-family="Times,serif" font-size="14.00">Exam</text>
</g>
<!-- ExamProject -->
<g id="node4" class="node">
<title>ExamProject</title>
<ellipse fill="none" stroke="black" cx="538" cy="-251" rx="56.59" ry="18"/>
<text text-anchor="middle" x="538" y="-247.3" font-family="Times,serif" font-size="14.00">ExamProject</text>
</g>
<!-- Exam&#45;&gt;ExamProject -->
<g id="edge3" class="edge">
<title>Exam&#45;&gt;ExamProject</title>
<path fill="none" stroke="#543db0" d="M458.28,-322.53C474.37,-308.29 495.47,-289.62 511.92,-275.07"/>
<polygon fill="#543db0" stroke="#543db0" points="458.2,-322.59 447.73,-325.85 454.45,-325.91 450.71,-329.22 450.71,-329.22 450.71,-329.22 454.45,-325.91 453.69,-332.59 458.2,-322.59 458.2,-322.59"/>
<polygon fill="#543db0" stroke="#543db0" points="512.09,-274.92 522.56,-271.67 515.83,-271.61 519.58,-268.3 519.58,-268.3 519.58,-268.3 515.83,-271.61 516.6,-264.92 512.09,-274.92 512.09,-274.92"/>
</g>
<!-- Project -->
<g id="node5" class="node">
<title>Project</title>
<ellipse fill="none" stroke="black" cx="508" cy="-178" rx="36" ry="18"/>
<text text-anchor="middle" x="508" y="-174.3" font-family="Times,serif" font-size="14.00">Project</text>
</g>
<!-- Exam&#45;&gt;Project -->
<g id="edge4" class="edge">
<title>Exam&#45;&gt;Project</title>
<path fill="none" stroke="#ebbfd1" d="M441.07,-317.16C447.62,-294.19 458.39,-260.55 472,-233 476.94,-223 483.44,-212.66 489.56,-203.73"/>
<polygon fill="#ebbfd1" stroke="#ebbfd1" points="441.04,-317.27 434.03,-325.71 439.7,-322.09 438.37,-326.91 438.37,-326.91 438.37,-326.91 439.7,-322.09 442.7,-328.11 441.04,-317.27 441.04,-317.27"/>
<polygon fill="#ebbfd1" stroke="#ebbfd1" points="489.71,-203.52 499.16,-197.94 492.6,-199.43 495.48,-195.35 495.48,-195.35 495.48,-195.35 492.6,-199.43 491.8,-192.75 489.71,-203.52 489.71,-203.52"/>
</g>
<!-- User -->
<g id="node6" class="node">
<title>User</title>
<ellipse fill="none" stroke="black" cx="508" cy="-105" rx="27.1" ry="18"/>
<text text-anchor="middle" x="508" y="-101.3" font-family="Times,serif" font-size="14.00">User</text>
</g>
<!-- Exam&#45;&gt;User -->
<g id="edge2" class="edge">
<title>Exam&#45;&gt;User</title>
<path fill="none" stroke="#bc0d4f" d="M433.84,-316.87C434.58,-279.81 439.43,-212.01 463,-160 468.38,-148.14 477.09,-136.78 485.43,-127.57"/>
<polygon fill="#bc0d4f" stroke="#bc0d4f" points="433.84,-316.91 429.22,-326.85 433.78,-321.91 433.72,-326.91 433.72,-326.91 433.72,-326.91 433.78,-321.91 438.22,-326.96 433.84,-316.91 433.84,-316.91"/>
<polygon fill="#bc0d4f" stroke="#bc0d4f" points="485.67,-127.31 495.82,-123.17 489.12,-123.69 492.56,-120.07 492.56,-120.07 492.56,-120.07 489.12,-123.69 489.3,-116.96 485.67,-127.31 485.67,-127.31"/>
</g>
<!-- UserExam -->
<g id="node7" class="node">
<title>UserExam</title>
<ellipse fill="none" stroke="black" cx="248" cy="-18" rx="48.19" ry="18"/>
<text text-anchor="middle" x="248" y="-14.3" font-family="Times,serif" font-size="14.00">UserExam</text>
</g>
<!-- Exam&#45;&gt;UserExam -->
<g id="edge1" class="edge">
<title>Exam&#45;&gt;UserExam</title>
<path fill="none" stroke="#59bd6c" d="M411.49,-321.74C405.65,-316.36 399.25,-310.79 393,-306 357.18,-278.54 307,-297.13 307,-252 307,-252 307,-252 307,-104 307,-79.76 290.61,-57.46 275.11,-41.79"/>
<polygon fill="#59bd6c" stroke="#59bd6c" points="411.76,-321.99 415.94,-332.12 415.39,-325.42 419.03,-328.85 419.03,-328.85 419.03,-328.85 415.39,-325.42 422.12,-325.58 411.76,-321.99 411.76,-321.99"/>
<polygon fill="#59bd6c" stroke="#59bd6c" points="274.87,-41.56 270.76,-31.4 271.26,-38.11 267.65,-34.65 267.65,-34.65 267.65,-34.65 271.26,-38.11 264.54,-37.9 274.87,-41.56 274.87,-41.56"/>
</g>
<!-- ExamProject&#45;&gt;Project -->
<g id="edge5" class="edge">
<title>ExamProject&#45;&gt;Project</title>
<path fill="none" stroke="#c25268" d="M526.73,-223.34C524.26,-217.48 521.64,-211.27 519.16,-205.42"/>
<polygon fill="#c25268" stroke="#c25268" points="526.85,-223.6 526.59,-234.56 528.79,-228.21 530.74,-232.81 530.74,-232.81 530.74,-232.81 528.79,-228.21 534.88,-231.06 526.85,-223.6 526.85,-223.6"/>
<polygon fill="#c25268" stroke="#c25268" points="519.09,-205.24 519.34,-194.28 517.14,-200.63 515.2,-196.03 515.2,-196.03 515.2,-196.03 517.14,-200.63 511.05,-197.78 519.09,-205.24 519.09,-205.24"/>
</g>
<!-- Project&#45;&gt;User -->
<g id="edge7" class="edge">
<title>Project&#45;&gt;User</title>
<path fill="none" stroke="#bc154d" d="M501.42,-149.94C501.19,-144.36 501.19,-138.48 501.43,-132.9"/>
<polygon fill="#bc154d" stroke="#bc154d" points="501.44,-150.2 497.67,-160.5 501.8,-155.19 502.16,-160.17 502.16,-160.17 502.16,-160.17 501.8,-155.19 506.65,-159.85 501.44,-150.2 501.44,-150.2"/>
<polygon fill="#bc154d" stroke="#bc154d" points="501.45,-132.68 506.66,-123.03 501.81,-127.69 502.17,-122.71 502.17,-122.71 502.17,-122.71 501.81,-127.69 497.69,-122.38 501.45,-132.68 501.45,-132.68"/>
</g>
<!-- Project&#45;&gt;User -->
<g id="edge8" class="edge">
<title>Project&#45;&gt;User</title>
<path fill="none" stroke="#1be5cf" d="M514.58,-149.94C514.81,-144.36 514.81,-138.48 514.57,-132.9"/>
<polygon fill="#1be5cf" stroke="#1be5cf" points="514.56,-150.2 509.35,-159.85 514.2,-155.19 513.84,-160.17 513.84,-160.17 513.84,-160.17 514.2,-155.19 518.33,-160.5 514.56,-150.2 514.56,-150.2"/>
<polygon fill="#1be5cf" stroke="#1be5cf" points="514.55,-132.68 518.31,-122.38 514.19,-127.69 513.83,-122.71 513.83,-122.71 513.83,-122.71 514.19,-127.69 509.34,-123.03 514.55,-132.68 514.55,-132.68"/>
</g>
<!-- UserProject -->
<g id="node8" class="node">
<title>UserProject</title>
<ellipse fill="none" stroke="black" cx="728" cy="-18" rx="51.99" ry="18"/>
<text text-anchor="middle" x="728" y="-14.3" font-family="Times,serif" font-size="14.00">UserProject</text>
</g>
<!-- Project&#45;&gt;UserProject -->
<g id="edge6" class="edge">
<title>Project&#45;&gt;UserProject</title>
<path fill="none" stroke="#cd9051" d="M536.24,-156.72C577.9,-126.8 655.47,-71.09 698.07,-40.49"/>
<polygon fill="#cd9051" stroke="#cd9051" points="536.03,-156.87 525.29,-159.04 531.97,-159.78 527.91,-162.7 527.91,-162.7 527.91,-162.7 531.97,-159.78 530.54,-166.35 536.03,-156.87 536.03,-156.87"/>
<polygon fill="#cd9051" stroke="#cd9051" points="698.24,-40.38 708.98,-38.2 702.3,-37.46 706.36,-34.54 706.36,-34.54 706.36,-34.54 702.3,-37.46 703.73,-30.89 698.24,-40.38 698.24,-40.38"/>
</g>
<!-- User&#45;&gt;UserExam -->
<g id="edge11" class="edge">
<title>User&#45;&gt;UserExam</title>
<path fill="none" stroke="#906558" d="M474.43,-93.02C428.01,-77.85 344.12,-50.43 292.52,-33.55"/>
<polygon fill="#906558" stroke="#906558" points="474.5,-93.05 482.61,-100.43 479.25,-94.6 484.01,-96.16 484.01,-96.16 484.01,-96.16 479.25,-94.6 485.4,-91.88 474.5,-93.05 474.5,-93.05"/>
<polygon fill="#906558" stroke="#906558" points="292.47,-33.54 284.36,-26.15 287.72,-31.98 282.96,-30.43 282.96,-30.43 282.96,-30.43 287.72,-31.98 281.57,-34.71 292.47,-33.54 292.47,-33.54"/>
</g>
<!-- User&#45;&gt;UserProject -->
<g id="edge12" class="edge">
<title>User&#45;&gt;UserProject</title>
<path fill="none" stroke="#a70929" d="M540.46,-91.46C578.76,-76.66 642.6,-52 684.99,-35.62"/>
<polygon fill="#a70929" stroke="#a70929" points="540.46,-91.46 529.51,-90.87 535.79,-93.26 531.13,-95.06 531.13,-95.06 531.13,-95.06 535.79,-93.26 532.75,-99.26 540.46,-91.46 540.46,-91.46"/>
<polygon fill="#a70929" stroke="#a70929" points="685.16,-35.55 696.11,-36.15 689.82,-33.75 694.48,-31.95 694.48,-31.95 694.48,-31.95 689.82,-33.75 692.86,-27.75 685.16,-35.55 685.16,-35.55"/>
</g>
<!-- Mailboxer::Message -->
<g id="node9" class="node">
<title>Mailboxer::Message</title>
<ellipse fill="none" stroke="black" cx="398" cy="-18" rx="83.69" ry="18"/>
<text text-anchor="middle" x="398" y="-14.3" font-family="Times,serif" font-size="14.00">Mailboxer::Message</text>
</g>
<!-- User&#45;&gt;Mailboxer::Message -->
<g id="edge9" class="edge">
<title>User&#45;&gt;Mailboxer::Message</title>
<path fill="none" stroke="#67f1c7" d="M482.83,-84.55C466.42,-71.87 444.93,-55.26 427.69,-41.94"/>
<polygon fill="#67f1c7" stroke="#67f1c7" points="482.9,-84.6 488.06,-94.28 486.86,-87.66 490.81,-90.72 490.81,-90.72 490.81,-90.72 486.86,-87.66 493.56,-87.16 482.9,-84.6 482.9,-84.6"/>
<polygon fill="#67f1c7" stroke="#67f1c7" points="427.51,-41.81 422.35,-32.13 423.56,-38.75 419.6,-35.69 419.6,-35.69 419.6,-35.69 423.56,-38.75 416.85,-39.25 427.51,-41.81 427.51,-41.81"/>
<text text-anchor="middle" x="485" y="-57.8" font-family="Times,serif" font-size="14.00">messages</text>
</g>
<!-- Mailboxer::Receipt -->
<g id="node10" class="node">
<title>Mailboxer::Receipt</title>
<ellipse fill="none" stroke="black" cx="579" cy="-18" rx="79.09" ry="18"/>
<text text-anchor="middle" x="579" y="-14.3" font-family="Times,serif" font-size="14.00">Mailboxer::Receipt</text>
</g>
<!-- User&#45;&gt;Mailboxer::Receipt -->
<g id="edge10" class="edge">
<title>User&#45;&gt;Mailboxer::Receipt</title>
<path fill="none" stroke="#7d9c6b" d="M527.29,-80.91C536.96,-69.34 548.67,-55.31 558.5,-43.54"/>
<polygon fill="#7d9c6b" stroke="#7d9c6b" points="527.1,-81.13 517.24,-85.92 523.9,-84.97 520.69,-88.8 520.69,-88.8 520.69,-88.8 523.9,-84.97 524.15,-91.69 527.1,-81.13 527.1,-81.13"/>
<polygon fill="#7d9c6b" stroke="#7d9c6b" points="558.55,-43.49 568.41,-38.7 561.75,-39.65 564.96,-35.81 564.96,-35.81 564.96,-35.81 561.75,-39.65 561.5,-32.93 558.55,-43.49 558.55,-43.49"/>
<text text-anchor="middle" x="568.5" y="-57.8" font-family="Times,serif" font-size="14.00">receipts</text>
</g>
</g>
</svg>
