<?xml version="1.0" encoding="UTF-8" standalone="no"?>
<!DOCTYPE svg PUBLIC "-//W3C//DTD SVG 1.1//EN"
 "http://www.w3.org/Graphics/SVG/1.1/DTD/svg11.dtd">
<!-- Generated by graphviz version 2.43.0 (0)
 -->
<!-- Title: models_diagram Pages: 1 -->
<svg width="898pt" height="810pt"
 viewBox="0.00 0.00 898.00 810.00" xmlns="http://www.w3.org/2000/svg" xmlns:xlink="http://www.w3.org/1999/xlink">
<g id="graph0" class="graph" transform="scale(1 1) rotate(0) translate(4 806)">
<title>models_diagram</title>
<polygon fill="transparent" stroke="transparent" points="-4,4 -4,-806 894,-806 894,4 -4,4"/>
<!-- _diagram_info -->
<g id="node1" class="node">
<title>_diagram_info</title>
<text text-anchor="start" x="8" y="-765.6" font-family="Times,serif" font-size="13.00">Models diagram</text>
<text text-anchor="start" x="8" y="-751.6" font-family="Times,serif" font-size="13.00">Date: Feb 16 2024 &#45; 17:19</text>
<text text-anchor="start" x="8" y="-737.6" font-family="Times,serif" font-size="13.00">Migration version: 20210916091955</text>
<text text-anchor="start" x="8" y="-723.6" font-family="Times,serif" font-size="13.00">Generated by RailRoady 1.6.0</text>
<text text-anchor="start" x="8" y="-709.6" font-family="Times,serif" font-size="13.00">http://railroady.prestonlee.com</text>
</g>
<!-- ApplicationRecord -->
<g id="node2" class="node">
<title>ApplicationRecord</title>
<ellipse fill="none" stroke="black" cx="307" cy="-741" rx="77.19" ry="18"/>
<text text-anchor="middle" x="307" y="-737.3" font-family="Times,serif" font-size="14.00">ApplicationRecord</text>
</g>
<!-- Exam -->
<g id="node3" class="node">
<title>Exam</title>
<path fill="none" stroke="black" d="M414,-680.5C414,-680.5 536,-680.5 536,-680.5 542,-680.5 548,-686.5 548,-692.5 548,-692.5 548,-789.5 548,-789.5 548,-795.5 542,-801.5 536,-801.5 536,-801.5 414,-801.5 414,-801.5 408,-801.5 402,-795.5 402,-789.5 402,-789.5 402,-692.5 402,-692.5 402,-686.5 408,-680.5 414,-680.5"/>
<text text-anchor="middle" x="475" y="-786.3" font-family="Times,serif" font-size="14.00">Exam</text>
<polyline fill="none" stroke="black" points="402,-778.5 548,-778.5 "/>
<text text-anchor="start" x="410" y="-763.3" font-family="Times,serif" font-size="14.00">id :INTEGER</text>
<text text-anchor="start" x="410" y="-748.3" font-family="Times,serif" font-size="14.00">name :varchar</text>
<text text-anchor="start" x="410" y="-733.3" font-family="Times,serif" font-size="14.00">code :varchar</text>
<text text-anchor="start" x="410" y="-718.3" font-family="Times,serif" font-size="14.00">created_at :datetime(6)</text>
<text text-anchor="start" x="410" y="-703.3" font-family="Times,serif" font-size="14.00">updated_at :datetime(6)</text>
<text text-anchor="start" x="410" y="-688.3" font-family="Times,serif" font-size="14.00">description :TEXT</text>
</g>
<!-- ExamProject -->
<g id="node4" class="node">
<title>ExamProject</title>
<path fill="none" stroke="black" d="M534,-536.5C534,-536.5 656,-536.5 656,-536.5 662,-536.5 668,-542.5 668,-548.5 668,-548.5 668,-630.5 668,-630.5 668,-636.5 662,-642.5 656,-642.5 656,-642.5 534,-642.5 534,-642.5 528,-642.5 522,-636.5 522,-630.5 522,-630.5 522,-548.5 522,-548.5 522,-542.5 528,-536.5 534,-536.5"/>
<text text-anchor="middle" x="595" y="-627.3" font-family="Times,serif" font-size="14.00">ExamProject</text>
<polyline fill="none" stroke="black" points="522,-619.5 668,-619.5 "/>
<text text-anchor="start" x="530" y="-604.3" font-family="Times,serif" font-size="14.00">id :INTEGER</text>
<text text-anchor="start" x="530" y="-589.3" font-family="Times,serif" font-size="14.00">project_id :INTEGER</text>
<text text-anchor="start" x="530" y="-574.3" font-family="Times,serif" font-size="14.00">exam_id :INTEGER</text>
<text text-anchor="start" x="530" y="-559.3" font-family="Times,serif" font-size="14.00">created_at :datetime(6)</text>
<text text-anchor="start" x="530" y="-544.3" font-family="Times,serif" font-size="14.00">updated_at :datetime(6)</text>
</g>
<!-- Exam&#45;&gt;ExamProject -->
<g id="edge3" class="edge">
<title>Exam&#45;&gt;ExamProject</title>
<path fill="none" stroke="#28813d" d="M529.19,-672.48C535.11,-665.11 541.11,-657.64 546.95,-650.37"/>
<polygon fill="#28813d" stroke="#28813d" points="529.03,-672.69 519.26,-677.67 525.9,-676.58 522.77,-680.48 522.77,-680.48 522.77,-680.48 525.9,-676.58 526.28,-683.3 529.03,-672.69 529.03,-672.69"/>
<polygon fill="#28813d" stroke="#28813d" points="546.95,-650.37 556.72,-645.38 550.08,-646.47 553.21,-642.57 553.21,-642.57 553.21,-642.57 550.08,-646.47 549.7,-639.75 546.95,-650.37 546.95,-650.37"/>
</g>
<!-- Project -->
<g id="node5" class="node">
<title>Project</title>
<path fill="none" stroke="black" d="M515,-362.5C515,-362.5 637,-362.5 637,-362.5 643,-362.5 649,-368.5 649,-374.5 649,-374.5 649,-486.5 649,-486.5 649,-492.5 643,-498.5 637,-498.5 637,-498.5 515,-498.5 515,-498.5 509,-498.5 503,-492.5 503,-486.5 503,-486.5 503,-374.5 503,-374.5 503,-368.5 509,-362.5 515,-362.5"/>
<text text-anchor="middle" x="576" y="-483.3" font-family="Times,serif" font-size="14.00">Project</text>
<polyline fill="none" stroke="black" points="503,-475.5 649,-475.5 "/>
<text text-anchor="start" x="511" y="-460.3" font-family="Times,serif" font-size="14.00">id :INTEGER</text>
<text text-anchor="start" x="511" y="-445.3" font-family="Times,serif" font-size="14.00">project_name :varchar</text>
<text text-anchor="start" x="511" y="-430.3" font-family="Times,serif" font-size="14.00">description :varchar</text>
<text text-anchor="start" x="511" y="-415.3" font-family="Times,serif" font-size="14.00">created_at :datetime(6)</text>
<text text-anchor="start" x="511" y="-400.3" font-family="Times,serif" font-size="14.00">updated_at :datetime(6)</text>
<text text-anchor="start" x="511" y="-385.3" font-family="Times,serif" font-size="14.00">repo :varchar</text>
<text text-anchor="start" x="511" y="-370.3" font-family="Times,serif" font-size="14.00">user_id :INTEGER</text>
</g>
<!-- Exam&#45;&gt;Project -->
<g id="edge4" class="edge">
<title>Exam&#45;&gt;Project</title>
<path fill="none" stroke="#f5a5c2" d="M481.69,-670.46C487.09,-630.21 496.59,-579.15 513,-536 516.62,-526.47 521.11,-516.83 526.01,-507.46"/>
<polygon fill="#f5a5c2" stroke="#f5a5c2" points="481.68,-670.53 475.94,-679.87 481.04,-675.49 480.4,-680.45 480.4,-680.45 480.4,-680.45 481.04,-675.49 484.87,-681.02 481.68,-670.53 481.68,-670.53"/>
<polygon fill="#f5a5c2" stroke="#f5a5c2" points="526.06,-507.37 534.77,-500.71 528.44,-502.97 530.82,-498.57 530.82,-498.57 530.82,-498.57 528.44,-502.97 526.86,-496.43 526.06,-507.37 526.06,-507.37"/>
</g>
<!-- User -->
<g id="node6" class="node">
<title>User</title>
<path fill="none" stroke="black" d="M488,-158.5C488,-158.5 664,-158.5 664,-158.5 670,-158.5 676,-164.5 676,-170.5 676,-170.5 676,-312.5 676,-312.5 676,-318.5 670,-324.5 664,-324.5 664,-324.5 488,-324.5 488,-324.5 482,-324.5 476,-318.5 476,-312.5 476,-312.5 476,-170.5 476,-170.5 476,-164.5 482,-158.5 488,-158.5"/>
<text text-anchor="middle" x="576" y="-309.3" font-family="Times,serif" font-size="14.00">User</text>
<polyline fill="none" stroke="black" points="476,-301.5 676,-301.5 "/>
<text text-anchor="start" x="484" y="-286.3" font-family="Times,serif" font-size="14.00">id :INTEGER</text>
<text text-anchor="start" x="484" y="-271.3" font-family="Times,serif" font-size="14.00">email :varchar</text>
<text text-anchor="start" x="484" y="-256.3" font-family="Times,serif" font-size="14.00">encrypted_password :varchar</text>
<text text-anchor="start" x="484" y="-241.3" font-family="Times,serif" font-size="14.00">reset_password_token :varchar</text>
<text text-anchor="start" x="484" y="-226.3" font-family="Times,serif" font-size="14.00">reset_password_sent_at :datetime</text>
<text text-anchor="start" x="484" y="-211.3" font-family="Times,serif" font-size="14.00">remember_created_at :datetime</text>
<text text-anchor="start" x="484" y="-196.3" font-family="Times,serif" font-size="14.00">first_name :varchar</text>
<text text-anchor="start" x="484" y="-181.3" font-family="Times,serif" font-size="14.00">last_name :varchar</text>
<text text-anchor="start" x="484" y="-166.3" font-family="Times,serif" font-size="14.00">roles_mask :INTEGER</text>
</g>
<!-- Exam&#45;&gt;User -->
<g id="edge2" class="edge">
<title>Exam&#45;&gt;User</title>
<path fill="none" stroke="#865117" d="M467.04,-670.28C460.77,-592.69 458.22,-464.74 494,-362 497.36,-352.37 501.7,-342.79 506.65,-333.49"/>
<polygon fill="#865117" stroke="#865117" points="467.06,-670.45 463.42,-680.8 467.48,-675.43 467.91,-680.42 467.91,-680.42 467.91,-680.42 467.48,-675.43 472.39,-680.03 467.06,-670.45 467.06,-670.45"/>
<polygon fill="#865117" stroke="#865117" points="506.7,-333.4 515.49,-326.85 509.13,-329.03 511.56,-324.66 511.56,-324.66 511.56,-324.66 509.13,-329.03 507.63,-322.47 506.7,-333.4 506.7,-333.4"/>
</g>
<!-- UserExam -->
<g id="node7" class="node">
<title>UserExam</title>
<path fill="none" stroke="black" d="M230,-0.5C230,-0.5 352,-0.5 352,-0.5 358,-0.5 364,-6.5 364,-12.5 364,-12.5 364,-94.5 364,-94.5 364,-100.5 358,-106.5 352,-106.5 352,-106.5 230,-106.5 230,-106.5 224,-106.5 218,-100.5 218,-94.5 218,-94.5 218,-12.5 218,-12.5 218,-6.5 224,-0.5 230,-0.5"/>
<text text-anchor="middle" x="291" y="-91.3" font-family="Times,serif" font-size="14.00">UserExam</text>
<polyline fill="none" stroke="black" points="218,-83.5 364,-83.5 "/>
<text text-anchor="start" x="226" y="-68.3" font-family="Times,serif" font-size="14.00">id :INTEGER</text>
<text text-anchor="start" x="226" y="-53.3" font-family="Times,serif" font-size="14.00">user_id :INTEGER</text>
<text text-anchor="start" x="226" y="-38.3" font-family="Times,serif" font-size="14.00">exam_id :INTEGER</text>
<text text-anchor="start" x="226" y="-23.3" font-family="Times,serif" font-size="14.00">created_at :datetime(6)</text>
<text text-anchor="start" x="226" y="-8.3" font-family="Times,serif" font-size="14.00">updated_at :datetime(6)</text>
</g>
<!-- Exam&#45;&gt;UserExam -->
<g id="edge1" class="edge">
<title>Exam&#45;&gt;UserExam</title>
<path fill="none" stroke="#9cad71" d="M403.05,-672.96C374.35,-643.15 348,-610.36 348,-590.5 348,-590.5 348,-590.5 348,-240.5 348,-197.56 333.94,-151.4 319.79,-115.8"/>
<polygon fill="#9cad71" stroke="#9cad71" points="403.4,-673.32 407.16,-683.62 406.89,-676.9 410.38,-680.47 410.38,-680.47 410.38,-680.47 406.89,-676.9 413.6,-677.33 403.4,-673.32 403.4,-673.32"/>
<polygon fill="#9cad71" stroke="#9cad71" points="319.78,-115.78 320.17,-104.82 317.89,-111.15 316,-106.52 316,-106.52 316,-106.52 317.89,-111.15 311.83,-108.22 319.78,-115.78 319.78,-115.78"/>
</g>
<!-- ExamProject&#45;&gt;Project -->
<g id="edge5" class="edge">
<title>ExamProject&#45;&gt;Project</title>
<path fill="none" stroke="#51a6e2" d="M587.46,-526.16C586.77,-520.51 586.07,-514.74 585.38,-508.97"/>
<polygon fill="#51a6e2" stroke="#51a6e2" points="587.47,-526.29 584.21,-536.76 588.07,-531.26 588.67,-536.22 588.67,-536.22 588.67,-536.22 588.07,-531.26 593.14,-535.68 587.47,-526.29 587.47,-526.29"/>
<polygon fill="#51a6e2" stroke="#51a6e2" points="585.33,-508.56 588.59,-498.09 584.72,-503.6 584.12,-498.63 584.12,-498.63 584.12,-498.63 584.72,-503.6 579.66,-499.17 585.33,-508.56 585.33,-508.56"/>
</g>
<!-- Project&#45;&gt;User -->
<g id="edge7" class="edge">
<title>Project&#45;&gt;User</title>
<path fill="none" stroke="#4d0aee" d="M569.34,-352.16C569.28,-346.52 569.25,-340.79 569.25,-335.07"/>
<polygon fill="#4d0aee" stroke="#4d0aee" points="569.34,-352.25 564.99,-362.32 569.42,-357.25 569.49,-362.25 569.49,-362.25 569.49,-362.25 569.42,-357.25 573.99,-362.19 569.34,-352.25 569.34,-352.25"/>
<polygon fill="#4d0aee" stroke="#4d0aee" points="569.25,-334.8 573.79,-324.82 569.27,-329.8 569.29,-324.8 569.29,-324.8 569.29,-324.8 569.27,-329.8 564.79,-324.78 569.25,-334.8 569.25,-334.8"/>
</g>
<!-- Project&#45;&gt;User -->
<g id="edge8" class="edge">
<title>Project&#45;&gt;User</title>
<path fill="none" stroke="#237b8e" d="M582.66,-352.16C582.72,-346.52 582.75,-340.79 582.75,-335.07"/>
<polygon fill="#237b8e" stroke="#237b8e" points="582.66,-352.25 578.01,-362.19 582.58,-357.25 582.51,-362.25 582.51,-362.25 582.51,-362.25 582.58,-357.25 587.01,-362.32 582.66,-352.25 582.66,-352.25"/>
<polygon fill="#237b8e" stroke="#237b8e" points="582.75,-334.8 587.21,-324.78 582.73,-329.8 582.71,-324.8 582.71,-324.8 582.71,-324.8 582.73,-329.8 578.21,-324.82 582.75,-334.8 582.75,-334.8"/>
</g>
<!-- UserProject -->
<g id="node8" class="node">
<title>UserProject</title>
<path fill="none" stroke="black" d="M756,-0.5C756,-0.5 878,-0.5 878,-0.5 884,-0.5 890,-6.5 890,-12.5 890,-12.5 890,-94.5 890,-94.5 890,-100.5 884,-106.5 878,-106.5 878,-106.5 756,-106.5 756,-106.5 750,-106.5 744,-100.5 744,-94.5 744,-94.5 744,-12.5 744,-12.5 744,-6.5 750,-0.5 756,-0.5"/>
<text text-anchor="middle" x="817" y="-91.3" font-family="Times,serif" font-size="14.00">UserProject</text>
<polyline fill="none" stroke="black" points="744,-83.5 890,-83.5 "/>
<text text-anchor="start" x="752" y="-68.3" font-family="Times,serif" font-size="14.00">id :INTEGER</text>
<text text-anchor="start" x="752" y="-53.3" font-family="Times,serif" font-size="14.00">project_id :INTEGER</text>
<text text-anchor="start" x="752" y="-38.3" font-family="Times,serif" font-size="14.00">user_id :INTEGER</text>
<text text-anchor="start" x="752" y="-23.3" font-family="Times,serif" font-size="14.00">created_at :datetime(6)</text>
<text text-anchor="start" x="752" y="-8.3" font-family="Times,serif" font-size="14.00">updated_at :datetime(6)</text>
</g>
<!-- Project&#45;&gt;UserProject -->
<g id="edge6" class="edge">
<title>Project&#45;&gt;UserProject</title>
<path fill="none" stroke="#bae9ad" d="M656.21,-359.09C666.54,-348.22 676.46,-336.7 685,-325 732.96,-259.25 771.42,-173.39 794.19,-116.22"/>
<polygon fill="#bae9ad" stroke="#bae9ad" points="655.98,-359.33 645.79,-363.37 652.5,-362.92 649.02,-366.5 649.02,-366.5 649.02,-366.5 652.5,-362.92 652.25,-369.64 655.98,-359.33 655.98,-359.33"/>
<polygon fill="#bae9ad" stroke="#bae9ad" points="794.31,-115.9 802.17,-108.24 796.15,-111.24 797.98,-106.59 797.98,-106.59 797.98,-106.59 796.15,-111.24 793.79,-104.94 794.31,-115.9 794.31,-115.9"/>
</g>
<!-- User&#45;&gt;UserExam -->
<g id="edge11" class="edge">
<title>User&#45;&gt;UserExam</title>
<path fill="none" stroke="#51c455" d="M467.24,-169.52C435.94,-149.09 402.33,-127.16 372.94,-107.98"/>
<polygon fill="#51c455" stroke="#51c455" points="467.55,-169.72 473.46,-178.95 471.73,-172.45 475.92,-175.18 475.92,-175.18 475.92,-175.18 471.73,-172.45 478.38,-171.42 467.55,-169.72 467.55,-169.72"/>
<polygon fill="#51c455" stroke="#51c455" points="372.74,-107.85 366.83,-98.61 368.56,-105.12 364.37,-102.38 364.37,-102.38 364.37,-102.38 368.56,-105.12 361.91,-106.15 372.74,-107.85 372.74,-107.85"/>
</g>
<!-- User&#45;&gt;UserProject -->
<g id="edge12" class="edge">
<title>User&#45;&gt;UserProject</title>
<path fill="none" stroke="#0a1eb6" d="M684.25,-156.95C703.49,-142.11 723.15,-126.93 741.24,-112.97"/>
<polygon fill="#0a1eb6" stroke="#0a1eb6" points="684.03,-157.13 673.36,-159.67 680.07,-160.18 676.11,-163.24 676.11,-163.24 676.11,-163.24 680.07,-160.18 678.86,-166.8 684.03,-157.13 684.03,-157.13"/>
<polygon fill="#0a1eb6" stroke="#0a1eb6" points="741.51,-112.76 752.18,-110.21 745.47,-109.7 749.43,-106.65 749.43,-106.65 749.43,-106.65 745.47,-109.7 746.68,-103.09 741.51,-112.76 741.51,-112.76"/>
</g>
<!-- Mailboxer::Message -->
<g id="node9" class="node">
<title>Mailboxer::Message</title>
<ellipse fill="none" stroke="black" cx="466" cy="-53.5" rx="83.69" ry="18"/>
<text text-anchor="middle" x="466" y="-49.8" font-family="Times,serif" font-size="14.00">Mailboxer::Message</text>
</g>
<!-- User&#45;&gt;Mailboxer::Message -->
<g id="edge9" class="edge">
<title>User&#45;&gt;Mailboxer::Message</title>
<path fill="none" stroke="#6b2066" d="M522.23,-149.58C507.25,-124.24 492.14,-98.69 481.36,-80.47"/>
<polygon fill="#6b2066" stroke="#6b2066" points="522.34,-149.77 523.56,-160.67 524.89,-154.07 527.43,-158.38 527.43,-158.38 527.43,-158.38 524.89,-154.07 531.31,-156.09 522.34,-149.77 522.34,-149.77"/>
<polygon fill="#6b2066" stroke="#6b2066" points="481.23,-80.26 480.02,-69.36 478.69,-75.95 476.14,-71.65 476.14,-71.65 476.14,-71.65 478.69,-75.95 472.27,-73.94 481.23,-80.26 481.23,-80.26"/>
<text text-anchor="middle" x="540" y="-128.8" font-family="Times,serif" font-size="14.00">messages</text>
</g>
<!-- Mailboxer::Receipt -->
<g id="node10" class="node">
<title>Mailboxer::Receipt</title>
<ellipse fill="none" stroke="black" cx="647" cy="-53.5" rx="79.09" ry="18"/>
<text text-anchor="middle" x="647" y="-49.8" font-family="Times,serif" font-size="14.00">Mailboxer::Receipt</text>
</g>
<!-- User&#45;&gt;Mailboxer::Receipt -->
<g id="edge10" class="edge">
<title>User&#45;&gt;Mailboxer::Receipt</title>
<path fill="none" stroke="#af0932" d="M611,-148.82C620.46,-124.04 629.96,-99.13 636.83,-81.14"/>
<polygon fill="#af0932" stroke="#af0932" points="610.91,-149.03 603.14,-156.77 609.13,-153.71 607.35,-158.38 607.35,-158.38 607.35,-158.38 609.13,-153.71 611.55,-159.98 610.91,-149.03 610.91,-149.03"/>
<polygon fill="#af0932" stroke="#af0932" points="636.89,-80.99 644.66,-73.25 638.67,-76.32 640.45,-71.65 640.45,-71.65 640.45,-71.65 638.67,-76.32 636.25,-70.04 636.89,-80.99 636.89,-80.99"/>
<text text-anchor="middle" x="640.5" y="-128.8" font-family="Times,serif" font-size="14.00">receipts</text>
</g>
</g>
</svg>
